<?xml version="1.0" encoding="utf-8"?>
<!-- Svg Vector Icons : http://www.onlinewebfonts.com/icon -->
<!DOCTYPE svg PUBLIC "-//W3C//DTD SVG 1.1//EN" "http://www.w3.org/Graphics/SVG/1.1/DTD/svg11.dtd">
<svg version="1.1" xmlns="http://www.w3.org/2000/svg" xmlns:xlink="http://www.w3.org/1999/xlink" x="0px" y="0px" viewBox="0 0 1000 1000" enable-background="new 0 0 1000 1000" xml:space="preserve">
<metadata> Svg Vector Icons : http://www.onlinewebfonts.com/icon </metadata>
<g><g transform="translate(0.000000,512.000000) scale(0.100000,-0.100000)"><path fill="#fff" d="M4395.4,4974.1c42.1-149.2,45.9-139.7-111-241.1c-135.8-86.1-149.2-99.5-177.9-191.3c-30.6-95.7-36.3-101.4-93.7-101.4c-72.7,0-76.5-7.7-93.8-296.6c-17.2-294.6-23-311.9-107.1-365.4c-45.9-28.7-101.4-45.9-151.1-45.9c-67,0-76.5-5.7-76.5-42.1c0-74.6-23-130.1-49.7-130.1c-15.3,0-57.4-42.1-95.7-95.7c-36.3-51.7-89.9-111-114.8-128.2l-47.8-36.4l49.7-89.9c28.7-47.8,45.9-95.7,40.2-105.2c-5.7-9.6-84.2-42.1-174.1-72.7c-89.9-30.6-162.6-63.1-162.6-74.6s11.5-36.4,26.8-57.4c15.3-24.9,23-86.1,21-174.1l-1.9-137.8l-86.1-72.7c-47.8-42.1-114.8-99.5-151.1-130.1c-40.2-34.4-57.4-59.3-44-63.1c13.4-5.7,42.1-22.9,65-42.1c51.7-42.1,32.5-130.1-34.4-156.9l-45.9-17.2l86.1-103.3l88-101.4l-61.2-149.2c-65-160.7-65-156.9,36.4-218.1c13.4-5.8,34.4-63.2,47.8-126.3l21-111l-68.9-59.3c-68.9-57.4-70.8-63.1-70.8-185.6c0-126.3,0-126.3,76.5-177.9c42.1-26.8,76.5-55.5,76.5-59.3c0-5.7-34.4-78.4-74.6-160.7l-76.5-149.2l70.8-70.8c70.8-70.8,70.8-70.8,30.6-103.3c-21-17.2-59.3-45.9-84.2-63.1l-45.9-30.6l63.1-78.4c61.2-78.4,61.2-82.3,42.1-176c-11.5-53.6-21-99.5-21-103.3c0-1.9,82.3-70.8,181.8-153.1l181.8-151.2l-30.6-49.7c-189.4-288.9-204.7-308.1-267.9-319.6c-63.1-11.5-63.1-11.5-51.7-101.4c7.7-47.8,13.4-103.3,13.4-120.6c1.9-21-84.2-101.4-227.7-210.5l-229.6-177.9l-86.1-262.1c-78.4-239.2-93.8-266-168.4-334.8l-84.2-72.7l34.4-84.2c28.7-72.7,30.6-95.7,7.7-181.8c-36.4-143.5-47.8-158.8-153.1-185.6c-57.4-15.3-95.7-34.4-95.7-51.6c0-15.3,26.8-112.9,59.3-218.1c49.8-156.9,55.5-195.2,34.4-208.5c-15.3-7.7-44-28.7-65-44c-36.3-26.8-32.5-28.7,67-30.6c241.1,0,3185.6-80.4,3191.3-86.1c3.8-3.8-34.4-141.6-82.3-308l-89.9-302.3l34.4-107.1c26.8-76.5,67-137.8,155-229.6c112.9-120.5,122.4-137.8,210.5-392.2l91.8-267.9l101.4-5.7c97.6-5.7,101.4-3.8,120.5,51.7c13.4,38.3,53.6,78.4,116.7,116.7c93.7,57.4,95.7,61.2,61.2,97.6c-30.6,34.5-32.5,40.2-1.9,68.9c28.7,30.6,36.4,28.7,109.1-30.6l78.4-61.2l308,91.8l310,91.8l-84.2,15.3l-86.1,17.2l53.6,28.7c51.7,26.8,59.3,23,204.7-68.9l151.2-95.7l130.1,44l130.1,44l109.1-84.2l107.1-86.1l61.2,45.9l61.2,44l-9.6,181.8c-5.7,99.5-38.3,801.7-72.7,1559.3l-63.2,1379.5l310,3040.2c170.3,1674.1,310,3055.5,310,3072.7c0,15.3-30.6,65-67,107.1l-65.1,76.5l-1192,13.4c-656.2,5.7-1454.1,17.2-1773.6,23L4382,5020L4395.4,4974.1z"/><path d="M6980.2-4686c5.7-9.6,51.7-19.1,101.4-17.2c72.7,1.9,80.4,3.8,42.1,17.2C7052.9-4663,6966.8-4663,6980.2-4686z"/><path d="M6354.6-4699.4c-44-11.5-44-38.3,0-61.2c26.8-13.4,40.2-9.6,57.4,19.1C6448.3-4684.1,6438.8-4676.4,6354.6-4699.4z"/><path d="M7196.4-4718.5c11.5-3.8,34.4-3.8,47.8,0c11.5,5.7,1.9,9.6-24.9,9.6S7183-4712.8,7196.4-4718.5z"/><path d="M7458.5-4743.4c5.7-9.6,23-13.4,38.3-5.7c40.2,13.4,36.4,24.9-11.5,24.9C7464.3-4724.2,7450.9-4731.9,7458.5-4743.4z"/></g></g>
</svg>
